<svg id="Layer_1" data-name="Layer 1" xmlns="http://www.w3.org/2000/svg" viewBox="0 0 512 512"><title>logo</title><path d="M351.257,87.073,160.143,220.893A10.551,10.551,0,0,1,142.857,233L64.681,287.736a32.566,32.566,0,0,1-8,45.355l58.705,83.839a32.565,32.565,0,0,1,45.355,8l78.176-54.739a10.551,10.551,0,0,1,17.286-12.1l191.114-133.82a32.566,32.566,0,0,1,8-45.355l-58.7-83.839A32.565,32.565,0,0,1,351.257,87.073ZM184.906,343.661q-2.214,7.958-11.662,14.572l-29.42,20.6L102.208,319.4l28.5-19.954q9.1-6.372,17.124-5.959t13.151,7.75a16.17,16.17,0,0,1-.592,20.519,17.072,17.072,0,0,1,11.937-.635,17.875,17.875,0,0,1,9.483,6.99Q187.125,335.7,184.906,343.661Zm56.348,7.411-3.811,2.668-5.337-7.622,3.811-2.668ZM230.58,335.828l-3.811,2.669-5.336-7.622,3.81-2.668Zm-10.673-15.243-3.811,2.668-5.337-7.621,3.811-2.669Zm-10.674-15.244-3.811,2.669-5.337-7.622,3.811-2.668ZM198.56,290.1l-3.811,2.668-5.337-7.621,3.811-2.669Zm-10.674-15.243-3.811,2.668-5.337-7.622,3.811-2.668Zm-10.674-15.244-3.81,2.668-5.337-7.621,3.811-2.669Zm-10.673-15.243-3.811,2.668-5.337-7.622,3.811-2.668Zm-7.861,90.273A8.4,8.4,0,0,0,153,336.485l-9.527,6.671,7.557,10.792,9.611-6.73q6.231-4.362,2.573-9.594A6.344,6.344,0,0,0,158.678,334.641Zm-12.44-18.561q-3.714-5.305-9.954-.947l-8.346,5.843,7.322,10.457,8.346-5.843Q149.848,321.219,146.238,316.08Z" fill="#00bcd4"/></svg>